<svg xmlns="http://www.w3.org/2000/svg" version="1.1" viewBox="0 0 1024 1024" width="1024" height="1024">
<path transform="translate(0)" d="m0 0h1024v1024h-1024z" fill="transparent"/>
<path transform="translate(0)" d="m246 64-22 3-21 6-17 7-17 9-15 11-10 9-5 4-7 8-11 14-9 15-8 17-6 18-4 21-1 9v595l2 18 5 21 8 20 10 18 10 13 9 10 13 13 16 12 18 10 19 8 18 5 20 3h544l22-4 16-5 21-9 16-10 12-9 12-11 9-9 10-13 10-17 8-18 6-21 3-20v-603l-3-20-6-21-8-18-8-14-8-11-11-13-14-13-17-12-18-10-20-8-19-5-21-3z" fill="#EDE6D7"/>
<path transform="translate(246,64)" d="m0 0h531l26 4 20 6 20 9 15 9 16 12 15 14 12 15 11 18 7 15 6 18 4 19 1 9v603l-3 20-6 21-8 18-8 14-9 12-11 12-9 9-13 10-16 10-16 8-17 6-16 4-13 2h-544l-20-3-21-6-18-8-16-9-13-10-10-9-13-13-12-16-10-18-8-20-5-21-2-18v-595l3-21 5-19 8-19 8-15 10-14 11-12 13-13 18-13 21-11 19-7 21-5zm9 32-18 2-20 5-17 7-15 8-11 8-10 9-9 9-10 14-9 17-7 21-3 17-1 28v553l1 21 4 20 5 15 10 19 8 11 9 10 7 7 15 11 19 10 21 7 16 3 11 1h525l21-3 17-5 19-9 12-8 13-11 9-9 9-12 10-17 7-18 4-18 1-7v-596l-3-18-5-17-9-19-9-13-12-14-10-9-18-12-19-9-20-6-12-2-12-1z" fill="#42210D"/>
<path transform="translate(488,347)" d="m0 0h9l8 4 5 5 4-2 8-5 8-2 8 1 6 4 6 9 17 35 11 23 36 72 6 15 2 9 1 10 1 82 3 7 7 8 6 3 6-1 2-2h7l22 14 12 8 1 6-6 8-14 15-7 8-14 15-9 10-22 24-9 10-3 2-7-1-19-14-13-10-1-6 1-4-15-12-18-13-13-12-8-10h-2l-9 11-11 10-19 14-15 11-1 3 2 5-5 6-18 13-11 8-6 1-8-7-15-16-7-8-22-24-9-10-11-12-9-10-3-5 1-6 11-8 18-11 5-3h6l3 3h7l8-5 6-10 1-5 1-84 3-16 5-13 36-72 11-23 20-41 8-7z" fill="#42210D"/>
<path transform="translate(339,138)" d="m0 0h16l17 3 14 5 13 8 10 9 8 9 8 14 5 13 3 16v19l-3 15-5 13-6 11-2 4 16 16-1 4-18 18-4-1-15-15-5 1-10 5-15 4-9 1h-15l-19-3-13-5-14-8-12-11-8-10-8-16-4-14-1-7v-24l3-15 7-16 7-11 11-12 13-9 13-6 15-4z" fill="#42210D"/>
<path transform="translate(605,142)" d="m0 0h74l16 3 16 7 10 7 10 9 8 11 7 14 4 16 1 11v9l-2 15-5 15-7 13-9 11-14 11-15 7-11 3-8 1h-76v-162z" fill="#42210D"/>
<path transform="translate(491,384)" d="m0 0h7l5 4 1 3v67l-2 2-14 2-8 5-6 10-4 11-11 57-2 11 1 7 2 2h6l2-1 3-13 10-57 4-11 6-5h7l5 4 1 3v79l-1 48-3 15-5 13-9 12-7 7-17 13-18 14-3 2h-5l-12-13-15-16-9-10-2-5 7-7 8-7 7-7 5-10 1-4 1-73 3-12 16-39 20-49 14-35 5-12z" fill="#EDE6D7"/>
<path transform="translate(525,384)" d="m0 0h7l6 5 18 44 15 36 17 41 7 17 1 5 1 72 2 10 4 8 7 8 11 9 4 4-1 5-7 8-14 15-11 12-5 5h-5l-15-12-16-12-12-11-8-9-6-12-4-16-1-21v-111l4-5 2-1h7l6 5 3 9 11 63 3 9 7 1 3-3v-9l-12-63-6-16-6-8-6-4-3-1-12-1-1-1v-70z" fill="#EDE6D7"/>
<path transform="translate(462,142)" d="m0 0h108l1 1v30h-74v34h63l2 1v29l-1 1h-64v36l78 1v30h-113z" fill="#42210D"/>
<path transform="translate(381,766)" d="m0 0h33l8 16 23 47 7 14 13-26 13-28 10-21 2-2h33v129h-26l-1-1-1-81-16 32-11 23-7 14h-18l-17-35-18-36-1 84h-26z" fill="#42210D"/>
<path transform="translate(666,766)" d="m0 0h28l42 60 12 17 4 6 2 1-1-50v-34h28l1 1v128h-30l-11-16-16-23-24-34-7-10v83h-28z" fill="#42210D"/>
<path transform="translate(283,766)" d="m0 0h30l5 12 22 57 19 49 3 8v3h-30l-10-26h-49l-9 26h-30l-1-2 18-46 17-44 14-36z" fill="#42210D"/>
<path transform="translate(341,169)" d="m0 0h11l13 3 12 7 7 6 9 13 4 11 1 5v19l-3 12-4 9-7-6-15-15-3-1-15 16-3 3 2 4 19 19-1 2-13 3h-15l-12-3-11-6-11-11-8-16-2-9v-18l3-13 6-12 9-10 8-6 9-4z" fill="#EDE6D7"/>
<path transform="translate(553,766)" d="m0 0h86l1 1v23l-1 1h-58v27h50l1 1v24l-50 1-1 26h59l1 1v23l-1 1h-87z" fill="#42210D"/>
<path transform="translate(640,172)" d="m0 0h28l14 2 9 4 6 4 6 5 7 10 5 14 1 6v13l-2 10-5 12-9 11-9 6-10 4-12 2h-30v-102z" fill="#EDE6D7"/>
<path transform="translate(360,346)" d="m0 0h52l1 1v52l-1 1h-53v-53z" fill="#42210D"/>
<path transform="translate(297,801)" d="m0 0 2 2 13 34 2 8h-32l1-5 13-38z" fill="#EDE6D7"/>
</svg>